<?xml version="1.0" encoding="utf-8"?>
<!-- Generator: Adobe Illustrator 20.0.0, SVG Export Plug-In . SVG Version: 6.00 Build 0)  -->
<svg version="1.1" id="Layer_1" xmlns="http://www.w3.org/2000/svg" xmlns:xlink="http://www.w3.org/1999/xlink" x="0px" y="0px"
	 viewBox="0 0 300 300" style="enable-background:new 0 0 300 300;" xml:space="preserve">
<style type="text/css">
	.st0{fill:none;stroke:#231F20;stroke-width:7;stroke-linecap:round;stroke-linejoin:round;stroke-miterlimit:10;}
	.st1{fill:none;stroke:#231F20;stroke-width:5;stroke-linecap:round;stroke-linejoin:round;stroke-miterlimit:10;}
</style>
<g>
	<line class="st0" x1="213.7" y1="83.3" x2="19.5" y2="83.3"/>
	<path class="st0" d="M133,225.9H27.2c-4.3,0-7.7-3.5-7.7-7.7V97.1"/>
	<path class="st0" d="M19.5,83.3V63.1c0-4.3,3.5-7.7,7.7-7.7h204.8c4.3,0,7.7,3.5,7.7,7.7v52.4"/>
	<circle class="st1" cx="35.9" cy="69.8" r="4.7"/>
	<circle class="st1" cx="54.9" cy="69.8" r="4.7"/>
	<circle class="st1" cx="73.2" cy="69.8" r="4.7"/>
	<g>
		<path class="st0" d="M263.8,143.1l22.7,42.6c2.1,4,0.6,8.9-3.4,11l-100.4,53.5c-4,2.1-8.9,0.6-11-3.4L149,204.2"/>
		<path class="st0" d="M144.2,195.1c-2.1-4-0.6-8.9,3.4-11l100.4-53.5c4-2.1,8.9-0.6,11,3.4"/>
		<polyline class="st0" points="144.2,195.1 221,201 258.9,133.9 		"/>
		<line class="st0" x1="193.6" y1="207.7" x2="183.7" y2="240.3"/>
		<line class="st0" x1="241.9" y1="182" x2="274.4" y2="191.9"/>
	</g>
	<line class="st0" x1="107.2" y1="160.9" x2="159" y2="160.9"/>
	<line class="st0" x1="107.2" y1="182" x2="129.2" y2="182"/>
	<line class="st0" x1="107.2" y1="202" x2="133.1" y2="202"/>
</g>
</svg>
