<svg id="Layer_1" xmlns="http://www.w3.org/2000/svg" viewBox="0 0 300 300"><style>.st0,.st1{fill:none;stroke:#231f20;stroke-width:7;stroke-linecap:round;stroke-linejoin:round;stroke-miterlimit:10}.st1{stroke-width:5}</style><path class="st0" d="M213.7 83.3H19.5M133 225.9H27.2c-4.3 0-7.7-3.5-7.7-7.7V97.1M19.5 83.3V63.1c0-4.3 3.5-7.7 7.7-7.7H232c4.3 0 7.7 3.5 7.7 7.7v52.4"/><circle class="st1" cx="35.9" cy="69.8" r="4.7"/><circle class="st1" cx="54.9" cy="69.8" r="4.7"/><circle class="st1" cx="73.2" cy="69.8" r="4.7"/><path class="st0" d="M263.8 143.1l22.7 42.6c2.1 4 .6 8.9-3.4 11l-100.4 53.5c-4 2.1-8.9.6-11-3.4L149 204.2M144.2 195.1c-2.1-4-.6-8.9 3.4-11L248 130.6c4-2.1 8.9-.6 11 3.4"/><path class="st0" d="M144.2 195.1L221 201l37.9-67.1M193.6 207.7l-9.9 32.6M241.9 182l32.5 9.9M107.2 160.9H159M107.2 182h22M107.2 202h25.9"/></svg>