<svg xmlns="http://www.w3.org/2000/svg" viewBox="0 0 273 163.75" fill-rule="evenodd" clip-rule="evenodd" shape-rendering="geometricPrecision" text-rendering="geometricPrecision" image-rendering="optimizeQuality"><defs><style>.fil0,.fil1{fill:#000}.fil0{fill-rule:nonzero}.work_url:hover .fil1{fill:#9ffff5}</style></defs><path class="fil0" d="M136 131c-54 0-97-28-136-63C38 31 81 0 136 0c56 0 99 31 137 68-39 35-82 63-137 63zm0-14c38 0 77-17 115-50-38-35-77-52-115-52S60 32 22 67c38 33 76 50 114 50z"/><path class="fil1" d="M136 23c24 0 43 19 43 43 0 23-19 42-43 42-28 0-48-27-40-54 7 21 39 16 39-6 0-10-8-19-17-20 5-3 12-5 18-5z"/><text y="146" font-size="5" font-weight="bold" font-family="'Helvetica Neue', Helvetica, Arial-Unicode, Arial, Sans-serif">Created by yasminvisible</text><text y="151" font-size="5" font-weight="bold" font-family="'Helvetica Neue', Helvetica, Arial-Unicode, Arial, Sans-serif">from the Noun Project</text></svg>